
[img]http://img98.imageshack.us/img98/6135/mothh.jpg[/img]

Mothman.2010.DVDRip.XVID.AC3.HQ.Hive-CM8


Thx Hive

Source: DVD-R

Encode:

this is actually a new movie, release date is tomorrow. 
Dvd itself was just ok, video had noise in it and was interlaced - my favorite combination
still made a nice rip of it,another scyfy movie, but from the review its one of the better ones.
Also has some known cast and doesnt look that cheap.

i removed noise and interlace as much as possbile, the rest is nearly untouched
still got nice
enjoy

Video: 720x400 @bitrate 1700 2pass
Audio: English AC3 5.1 @448
Sample: yes included
 
http://www.dreadcentral.com/news/47340/syfys-mothman-flies-home-lionsgate
 
http://www.imdb.com/title/tt1514425/


General
Complete name                  : Mothman.2010.DVDRip.XVID.AC3.HQ.Hive-CM8.avi
Format                         : AVI
Format/Info                    : Audio Video Interleave
File size                      : 1.33 GiB
Duration                       : 1h 27mn
Overall bit rate               : 2 160 Kbps
Writing application            : Nandub v1.0rc2
Writing library                : Nandub build 1853/release

Video
ID                             : 0
Format                         : MPEG-4 Visual
Format profile                 : Advanced Simple@L5
Format settings, BVOP          : 2
Format settings, QPel          : Yes
Format settings, GMC           : No warppoints
Format settings, Matrix        : Default (H.263)
Muxing mode                    : Packed bitstream
Codec ID                       : XVID
Codec ID/Hint                  : XviD
Duration                       : 1h 27mn
Bit rate                       : 1 703 Kbps
Width                          : 720 pixels
Height                         : 400 pixels
Display aspect ratio           : 16:9
Frame rate                     : 23.976 fps
Color space                    : YUV
Chroma subsampling             : 4:2:0
Bit depth                      : 8 bits
Scan type                      : Progressive
Compression mode               : Lossy
Bits/(Pixel*Frame)             : 0.247
Stream size                    : 1.04 GiB (79%)
Writing library                : XviD 1.2.1 (UTC 2008-12-04)

Audio
ID                             : 1
Format                         : AC-3
Format/Info                    : Audio Coding 3
Mode extension                 : CM (complete main)
Codec ID                       : 2000
Duration                       : 1h 27mn
Bit rate mode                  : Constant
Bit rate                       : 448 Kbps
Channel(s)                     : 6 channels
Channel positions              : Front: L C R, Side: L R, LFE
Sampling rate                  : 48.0 KHz
Bit depth                      : 16 bits
Compression mode               : Lossy
Stream size                    : 281 MiB (21%)
Alignment                      : Split accross interleaves
Interleave, duration           : 42 ms (1.00 video frame)
Interleave, preload duration   : 500 ms


Plot:

A group of friends band together to hide the truth about a mutual friend's tragic death. 
They soon discover that an evil entity is in pursuit of them. 

Cast:

Jewel Staite	... Katharine Grant
Connor Fox	... Derek Carpenter
Susie Abromeit	... Mindy
Michael Aills	... Jared
Matty Ferraro	... Casey
 
http://img98.imageshack.us/img98/1817/63093175.png 
http://img508.imageshack.us/img508/3387/momol.png 
http://img28.imageshack.us/img28/6028/momomo.png 
http://img46.imageshack.us/img46/4277/momomomo.png 
http://img190.imageshack.us/img190/8463/momomomomo.png